<svg width="195" height="43" fill="none" xmlns="http://www.w3.org/2000/svg"><path fill-rule="evenodd" clip-rule="evenodd" d="M29.467 6.976c-.883.44-1.828.455-2.256-.943-.304-.997-.027-2.11.732-2.51 3.126-2.26 8.362-3.61 12.556.056 3.947 3.451 4.841 11.189 4.119 18.168-.84 8.114-4.354 16.333-11.35 16.054-4.733-.19-7.61-4.31-7.949-9.032-.243-3.368.804-7.044 3.383-9.817 2.552-2.743 4.901-4.03 8.145-4.603.81-.14 1.312.667 1.42 1.729.14 1.382-.56 2.132-1.474 2.293-2.473.436-4.427 1.526-5.86 3.609-1.059 1.542-1.68 3.596-1.632 6.248.073 4.126 1.87 6.137 3.95 5.877 4.297-.535 5.96-8.06 6.496-12.697.686-5.922.333-11.022-1.61-13.716-1.642-2.277-4.422-2.835-8.67-.715v-.001zm28.996 2.246c1.173-3.525-2.281-5.017-4.265-3.754-1.247.792-1.767 2.388-1.883 4.115-.12 1.8.206 4.16.985 5.723 3.044 6.115 9.295 10.285 6.471 17.875-1.837 4.935-5.858 6.266-9.734 6.04a16.515 16.515 0 01-2.94-.452c-.82-.2-1.36-1.236-1.206-2.312.153-1.076.942-1.785 1.762-1.585.88.218 1.803.444 2.694.298 2.389-.391 4.564-2.322 5.175-5.688 1.034-5.692-2.666-8.907-5.158-12.372-1.902-2.64-3.29-5.426-2.886-8.902.407-3.502 2.207-5.874 4.74-6.8 3.14-1.148 7.386-.18 9.094 3.458.7 1.465.867 3.572.322 5.37-.357 1.181-1.272 1.713-2.05 1.466-.846-.268-1.502-1.335-1.121-2.48zm7.807-6c.194-1.173 1.49-1.682 2.583-1.51 1.093.173 2.253.436 1.99 2.298-.892 6.675-1.109 10.254 1.416 10.734 3.824.728 7.266-5.69 7.747-10.067.149-1.362 1.09-1.864 1.94-1.672.777.174 1.478.666 1.44 1.872-.155 4.832-.773 10.416-1.484 15.14a70.05 70.05 0 013.66-.535c.899-.103 1.603.45 1.721 1.686.088.92-.276 1.915-1.183 2.139a107.242 107.242 0 00-5.028 1.548l-.168.84c-1.306 6.378-3.022 13.148-8.282 15.23-1.23.485-2.534.669-3.726.488-1.312-.2-2.506-.837-3.384-1.99-.95-1.246-1.406-3.1-1.525-4.827-.162-2.349.363-4.672 1.842-6.8 1.327-1.908 3.455-3.646 6.599-5.065 1.721-.776 3.767-1.464 6.179-2.042.39-2.216.715-4.434.976-6.495-2.516 3.464-5.121 4.405-7.488 4.495-4.992.192-7.383-5.38-5.825-15.47v.003zM77.48 26.17c-3.378 1.348-5.86 2.707-7.59 4.087-2.376 1.893-3.096 3.68-2.708 5.446.097.36.24.655.417.89.368.483.922.746 1.559.822.755.091 1.61-.08 2.442-.453 3.553-1.602 4.836-6.448 5.88-10.792zM20.833 7.081c-3.04.424-8.3-.425-10.05 2.192-2.64 3.944-2.962 16.572-.248 22.569 1.95 4.312 5.51 3.903 9.002 3.376.968-.147 2.222-.643 2.673.949.562 1.988-.982 2.736-2.1 2.98-4.997 1.096-10.852 1.685-14.018-4.416-3.866-7.45-3.777-22.2-.07-27.857 2.666-4.067 9.942-3.212 13.996-3.72 2.865-.334 2.628 3.66.815 3.926v.001z" fill="#00A651"/><path fill-rule="evenodd" clip-rule="evenodd" d="M17.35 19.807c.825-.237 1.416.56 1.596 1.642.18 1.082-.116 2.038-.94 2.277-5.4 1.56-11.567.954-16.983-.105-.834-.162-1.12-1.16-.995-2.254.124-1.094.61-1.868 1.444-1.705 4.884.677 10.674 1.26 15.879.146v-.001zm128.49-8.275c-.677 4.137-1.386 9.267-1.236 13.998.139 4.416 1.024 8.516 3.422 11.085.573.533.474 1.568.15 2.417-.359.936-1.228 1.314-1.942.843-3.965-2.634-5.898-6.894-6.537-11.68-.791-5.925.468-12.622 2.249-17.848.631-1.864 4.326-1.478 3.894 1.185zm6.252-4.805c.75-1.87 4.149-.632 3.622 1.748-1.535 5.84-1.59 12.584-1.122 17.131.273 2.655 1.012 7.027 2.12 9.351.607-.865 2.375-4.208 4.426-8.312a163.112 163.112 0 004.374-9.498c-.825-.735-1.495-1.495-2.012-2.29-1.5-2.303-2.057-5.567-1.095-8.361.311-.903.764-1.705 1.338-2.347.913-1.025 2.13-1.646 3.566-1.626a4.585 4.585 0 011.946.447c1.007.49 1.783 1.34 2.305 2.479 1.108 2.425.796 5.513.081 8.046-.26.924-.579 1.892-.943 2.886.851.47 1.795.94 2.832 1.414.607.273.985 1.025.975 1.823.002.214-.024.432-.079.646-.26.99-1.082 1.517-1.838 1.175a42.985 42.985 0 01-3.268-1.649c-1.196 2.732-2.621 5.526-4.061 8.087-1.094 1.945-6.531 10.732-8.365 11.055a1.54 1.54 0 01-.826-.08c-2.203-.843-4.14-5.111-4.926-7.507-1.093-3.33-1.837-7.602-1.644-12.196.145-3.44 1.167-8.867 2.594-12.422zm14.787 6.991c.214-.567.414-1.117.597-1.647.37-1.065 1.306-4.076.842-5.24a.55.55 0 00-.241-.275c-.194-.115-.46-.18-.808-.184a2.111 2.111 0 00-1.648.727c-.249.28-.445.627-.58 1.016a4.276 4.276 0 00-.225 1.354v.052c.013.909.291 1.898.885 2.812.304.466.697.927 1.178 1.386v-.001z" fill="#00A651"/><path fill-rule="evenodd" clip-rule="evenodd" d="M169.382 19.671c-.768-.284-1.214-1.332-.998-2.338.217-1.008 1.015-1.595 1.782-1.311 1.186.439 2.37.876 3.559 1.302 2.462-9.64 7.346-13.36 11.843-13.467 5.833-.139 10.686 5.725 9.1 12.682-2.33 10.223-11.605 7.951-17.293 6.008-1.289 5.846-.488 9.557 1.759 10.762 1.611.865 3.966.44 6.827-1.41 2.323-1.5 3.187 1.968 1.534 3.316-2.854 2.326-6.636 2.911-9.683 1.401-5.156-2.555-5.875-9.305-4.845-15.62l-3.585-1.325zm8.738-.85c4.198 1.341 10.219 2.868 12.073-4.225 1.331-5.088-1.789-7.63-5.185-6.684-3.509.978-5.641 6.344-6.888 10.909zm-41.059 18.272c.549.835.478 2.097-.159 2.818-1.465 1.658-2.741.61-3.842-.835-1.317-1.73-2.687-3.577-3.895-5.575-.921-1.523-2.175-3.84-2.915-6.217-1.176-3.78-.719-7.01 2.238-8.845 2.703-2.022 3.753-4.962 3.651-7.622-.075-1.96-.767-3.862-1.97-5.052-1.755-1.736-6.218-1.709-6.765 2.126-.573 4.008-.46 13.03.028 20 .375 5.363.694 9.924.12 12.038-.217.954-.95 1.567-1.717 1.394-.83-.187-1.88-1.206-1.855-2.309.048-2.113-.154-3.549-.489-7.027-.742-7.682-1.512-18.493.164-24.78 1.149-4.31 4.521-6.426 7.89-6.616 2.236-.126 4.625.652 6.458 2.338 2.065 1.899 3.429 4.922 3.14 8.585-.298 3.737-2.655 7.664-7.231 10.458-1.424 1.066-1.41 1.573-.813 3.673 1.422 3.378 5.441 8.324 7.962 11.45v-.002zm6.299-34.412c.527-1.998 1.444-2.972 3.182-2.605 1.78.376 2.472 1.62 1.845 3.791-.574 1.988-1.578 2.732-3.172 2.362-1.641-.38-2.387-1.528-1.855-3.55v.002zm-37.035 32.823c4.828-.973 4.294-10.352 3.743-14.975-.683-5.72-2.15-9.322-4.436-11.294-2.461-2.122-5.87-2.357-10.27-1.31-.845.199-1.7.51-2.525.712-1.839.448-2.5-3.155-.57-3.98.392-.168.833-.267 1.232-.378 4.709-1.362 11.591-2.987 15.84.585 3.575 2.97 5.722 9.021 6.151 15.486.575 8.658-.655 16.881-8.111 18.638-4.686 1.104-8.2-.206-9.162 1.936-2.135 4.754-6.195.497-3.03-4.297 2.348-3.557 6.883-.26 11.137-1.124l.001.001z" fill="#00A651"/><path fill-rule="evenodd" clip-rule="evenodd" d="M96.667 13.036c-.267-.871.253-1.81 1.33-2.176.997-.338 1.702.162 2.03 1.229 2.257 7.33 2.871 17.384 2.987 25.409.017 1.105-.686 1.64-1.528 1.662-.843.02-1.885-.551-1.9-1.656-.386-8.189-.925-16.803-2.919-24.468z" fill="#00A651"/></svg>