<svg width="195" height="43" viewBox="0 0 195 43" fill="none" xmlns="http://www.w3.org/2000/svg">
<path fill-rule="evenodd" clip-rule="evenodd" d="M29.4674 6.97581C28.5842 7.41608 27.6389 7.4313 27.2114 6.03332C26.9065 5.03647 27.184 3.9233 27.9429 3.52326C31.0688 1.26214 36.3049 -0.0869203 40.4987 3.5787C44.4464 7.03016 45.3404 14.768 44.6179 21.747C43.7787 29.8609 40.2642 38.0803 33.2685 37.8009C28.5345 37.6107 25.6588 33.4907 25.3191 28.7695C25.0764 25.4007 26.1228 21.7253 28.7018 18.9521C31.2544 16.2094 33.6032 14.9223 36.8475 14.3494C37.657 14.2081 38.159 15.0158 38.2667 16.0779C38.4067 17.4596 37.7075 18.2097 36.7928 18.3705C34.3198 18.8065 32.3662 19.8968 30.9338 21.9796C29.8741 23.5222 29.2536 25.5757 29.3008 28.2281C29.3737 32.3536 31.1716 34.3647 33.2511 34.1049C37.5484 33.57 39.2104 26.0453 39.7472 21.4078C40.4332 15.4865 40.0795 10.386 38.1367 7.6922C36.4946 5.41477 33.715 4.8571 29.4665 6.9769L29.4674 6.97581Z" fill="#00A651"/>
<path fill-rule="evenodd" clip-rule="evenodd" d="M58.4628 9.22161C59.6359 5.69731 56.182 4.20476 54.1977 5.46794C52.9509 6.26042 52.4314 7.85625 52.3154 9.58252C52.1944 11.3838 52.5209 13.7428 53.2996 15.306C56.3443 21.4208 62.5953 25.5908 59.771 33.1808C57.9342 38.1161 53.9127 39.4467 50.0371 39.2216C49.0346 39.1629 48.0404 38.9999 47.0976 38.7694C46.2774 38.5683 45.7364 37.5334 45.8905 36.4572C46.0437 35.381 46.8325 34.6722 47.6527 34.8722C48.5334 35.0897 49.4555 35.3158 50.3469 35.1701C52.7355 34.7788 54.9111 32.8481 55.5217 29.4825C56.5556 23.7895 52.8564 20.575 50.3635 17.1105C48.4621 14.47 47.0744 11.6838 47.4779 8.20846C47.8847 4.7059 49.685 2.3339 52.2176 1.40771C55.3576 0.25976 59.6045 1.22726 61.312 4.8657C62.0129 6.33108 62.1786 8.43783 61.6342 10.2358C61.2772 11.4175 60.3625 11.9491 59.5846 11.7023C58.7378 11.4338 58.0817 10.3674 58.4628 9.22161Z" fill="#00A651"/>
<path fill-rule="evenodd" clip-rule="evenodd" d="M66.2696 3.22218C66.4643 2.04923 67.7592 1.54048 68.8528 1.71223C69.9456 1.88508 71.1055 2.14815 70.8437 4.01031C69.9506 10.685 69.7343 14.2636 72.2587 14.7441C76.083 15.4724 79.5254 9.05435 80.0059 4.67669C80.155 3.31459 81.0954 2.81344 81.9462 3.00477C82.7234 3.1787 83.4243 3.67114 83.3853 4.87671C83.2312 9.70876 82.6132 15.2931 81.9015 20.0164C83.0539 19.8164 84.2726 19.6359 85.5626 19.4816C86.4607 19.3794 87.1649 19.9316 87.2834 21.1676C87.3712 22.0884 87.0075 23.0831 86.1003 23.307C84.2784 23.8223 82.6057 24.3386 81.0722 24.855L80.904 25.6953C79.5983 32.0732 77.8817 38.8435 72.6216 40.9241C71.3913 41.4101 70.0881 41.5938 68.8959 41.4133C67.5836 41.2133 66.3897 40.5763 65.5123 39.4229C64.5629 38.1771 64.1064 36.3236 63.9871 34.5963C63.8255 32.2471 64.35 29.924 65.8288 27.7966C67.1561 25.8877 69.2836 24.1495 72.4277 22.7308C74.1493 21.9547 76.1949 21.2666 78.6066 20.6893C78.9977 18.4728 79.3216 16.2551 79.5834 14.194C77.0673 17.6585 74.4617 18.5989 72.0947 18.6891C67.103 18.8815 64.712 13.3081 66.2696 3.21892V3.22218ZM77.4799 26.1703C74.1021 27.5183 71.6191 28.8772 69.8892 30.2567C67.514 32.1504 66.794 33.9375 67.1818 35.7029C67.2795 36.0638 67.4228 36.3584 67.5993 36.5921C67.9672 37.0759 68.5214 37.339 69.1577 37.4151C69.9133 37.5064 70.7674 37.3357 71.6001 36.9618C75.1526 35.3605 76.436 30.5143 77.4799 26.1703Z" fill="#00A651"/>
<path fill-rule="evenodd" clip-rule="evenodd" d="M20.8328 7.08119C17.7923 7.50515 12.5338 6.65614 10.7824 9.27274C8.14369 13.2166 7.82141 25.8452 10.5347 31.8415C12.4858 36.1539 16.045 35.7452 19.5371 35.218C20.5047 35.0712 21.7591 34.5755 22.2098 36.167C22.7723 38.1553 21.228 38.9032 20.1104 39.1478C15.1129 40.2435 9.25801 40.8316 6.09235 34.731C2.2258 27.2812 2.31527 12.5318 6.02276 6.87356C8.688 2.80681 15.9638 3.66234 20.0176 3.15468C22.8833 2.81986 22.6464 6.81486 20.8328 7.08011V7.08119Z" fill="#00A651"/>
<path fill-rule="evenodd" clip-rule="evenodd" d="M17.3506 19.8067C18.175 19.5697 18.7657 20.3676 18.9463 21.4492C19.1269 22.5309 18.8303 23.4875 18.006 23.7256C12.6067 25.2855 6.43945 24.68 1.0228 23.6212C0.189339 23.4592 -0.0964904 22.4602 0.0277829 21.3666C0.152056 20.273 0.638378 19.499 1.47184 19.6621C6.35577 20.3393 12.1461 20.922 17.3506 19.8078V19.8067Z" fill="#00A651"/>
<path fill-rule="evenodd" clip-rule="evenodd" d="M145.84 11.532C145.163 15.6694 144.454 20.7993 144.604 25.5303C144.743 29.946 145.628 34.0464 148.026 36.6152C148.599 37.1478 148.5 38.1827 148.176 39.0317C147.817 39.9677 146.948 40.346 146.234 39.8753C142.269 37.2413 140.336 32.9811 139.697 28.1947C138.906 22.2701 140.165 15.5727 141.946 10.3471C142.577 8.48275 146.272 8.86866 145.84 11.532Z" fill="#00A651"/>
<path fill-rule="evenodd" clip-rule="evenodd" d="M152.092 6.72705C152.842 4.85728 156.241 6.09546 155.714 8.47506C154.179 14.3148 154.124 21.059 154.592 25.6063C154.865 28.2609 155.604 32.6331 156.712 34.9573C157.319 34.092 159.087 30.7492 161.138 26.6455C162.632 23.655 164.193 20.2916 165.512 17.1467C164.687 16.4118 164.017 15.6519 163.5 14.8562C162 12.5538 161.443 9.29038 162.405 6.4955C162.716 5.59323 163.169 4.79097 163.743 4.14851C164.656 3.12448 165.873 2.50267 167.309 2.52333C168.023 2.5342 168.675 2.68856 169.255 2.97011C170.262 3.4593 171.038 4.3094 171.56 5.44865C172.668 7.87392 172.356 10.9623 171.641 13.4952C171.381 14.4192 171.062 15.3867 170.698 16.3814C171.549 16.851 172.493 17.3217 173.53 17.7946C174.137 18.0685 174.515 18.8197 174.505 19.6176C174.507 19.8317 174.481 20.0502 174.426 20.2644C174.166 21.2547 173.344 21.7809 172.588 21.4395C171.393 20.8938 170.304 20.3459 169.32 19.7904C168.124 22.5223 166.699 25.316 165.259 27.8772C164.165 29.822 158.728 38.6088 156.894 38.9317C156.611 38.9817 156.335 38.9534 156.068 38.8512C153.865 38.0087 151.928 33.7409 151.142 31.345C150.049 28.0142 149.305 23.743 149.498 19.1491C149.643 15.7096 150.665 10.2818 152.092 6.72705H152.092ZM166.879 13.718C167.093 13.1506 167.293 12.6005 167.476 12.0711C167.846 11.0058 168.782 7.99458 168.318 6.83032C168.274 6.71944 168.195 6.62595 168.077 6.55638C167.883 6.44115 167.617 6.37592 167.269 6.37158C166.591 6.36179 166.029 6.64008 165.621 7.09883C165.372 7.37821 165.176 7.72607 165.041 8.11524C164.898 8.52942 164.82 8.99034 164.816 9.46865V9.52083C164.829 10.4296 165.107 11.4189 165.701 12.3331C166.005 12.7995 166.398 13.2604 166.879 13.7191V13.718Z" fill="#00A651"/>
<path fill-rule="evenodd" clip-rule="evenodd" d="M169.382 19.671C168.614 19.3872 168.168 18.3393 168.384 17.3327C168.601 16.325 169.399 15.7379 170.166 16.0217C171.352 16.4608 172.536 16.8978 173.725 17.324C176.187 7.68379 181.071 3.96491 185.568 3.85729C191.401 3.71814 196.254 9.58183 194.668 16.5391C192.338 26.762 183.063 24.49 177.375 22.5474C176.086 28.3926 176.887 32.1038 179.134 33.3094C180.745 34.1736 183.1 33.7497 185.961 31.8995C188.284 30.3982 189.148 33.8671 187.495 35.2151C184.641 37.5414 180.859 38.1263 177.812 36.6163C172.656 34.0606 171.937 27.3109 172.967 20.9961L169.382 19.671ZM178.12 18.8209C182.318 20.1623 188.339 21.6886 190.193 14.5965C191.524 9.5079 188.404 6.96523 185.008 7.91208C181.499 8.89044 179.367 14.2563 178.12 18.8209Z" fill="#00A651"/>
<path fill-rule="evenodd" clip-rule="evenodd" d="M137.061 37.0934C137.61 37.9283 137.539 39.1904 136.902 39.9111C135.437 41.5689 134.161 40.521 133.06 39.0762C131.743 37.3467 130.373 35.4987 129.165 33.5006C128.244 31.9776 126.99 29.6611 126.25 27.2836C125.074 23.5039 125.531 20.2742 128.488 18.4392C131.191 16.4172 132.241 13.4767 132.139 10.8166C132.064 8.85771 131.372 6.95533 130.169 5.76498C128.414 4.02892 123.951 4.0561 123.404 7.8913C122.831 11.8993 122.944 20.921 123.432 27.8913C123.807 33.2539 124.126 37.8152 123.552 39.9285C123.335 40.883 122.602 41.4961 121.835 41.3232C121.005 41.1363 119.955 40.1166 119.98 39.0143C120.028 36.901 119.826 35.465 119.491 31.9874C118.749 24.3051 117.979 13.4941 119.655 7.20753C120.804 2.89619 124.176 0.780742 127.545 0.590503C129.781 0.46549 132.17 1.24274 134.003 2.9288C136.068 4.82792 137.432 7.85108 137.143 11.5145C136.845 15.2508 134.488 19.1784 129.912 21.9722C128.488 23.0375 128.502 23.5452 129.099 25.6454C130.521 29.023 134.54 33.9692 137.061 37.0956V37.0934Z" fill="#00A651"/>
<path fill-rule="evenodd" clip-rule="evenodd" d="M143.36 2.68095C143.887 0.682908 144.804 -0.291115 146.542 0.076317C148.322 0.452445 149.014 1.69606 148.387 3.86695C147.813 5.85521 146.809 6.59877 145.215 6.22917C143.574 5.84869 142.828 4.70074 143.36 2.67986V2.68095Z" fill="#00A651"/>
<path fill-rule="evenodd" clip-rule="evenodd" d="M106.325 35.5041C111.153 34.5311 110.619 25.1518 110.068 20.5285C109.385 14.8094 107.918 11.2068 105.632 9.23489C103.171 7.11292 99.762 6.87811 95.3611 7.92496C94.5169 8.1239 93.6619 8.43589 92.8367 8.637C90.9983 9.08487 90.3363 5.4823 92.2675 4.65613C92.6594 4.48872 93.1002 4.3898 93.4987 4.27891C98.2078 2.91681 105.09 1.29163 109.339 4.86376C112.914 7.83365 115.061 13.8854 115.49 20.3502C116.065 29.0077 114.835 37.2314 107.379 38.9882C102.693 40.0915 99.1796 38.7816 98.2169 40.9242C96.0819 45.678 92.0223 41.421 95.1871 36.627C97.5351 33.0701 102.07 36.3661 106.324 35.503L106.325 35.5041Z" fill="#00A651"/>
<path fill-rule="evenodd" clip-rule="evenodd" d="M96.6671 13.0364C96.3995 12.1646 96.9198 11.2265 97.9977 10.8601C98.9943 10.522 99.6994 11.0221 100.027 12.0885C102.284 19.4198 102.898 29.473 103.014 37.4978C103.031 38.6034 102.328 39.1382 101.486 39.16C100.643 39.1806 99.6008 38.6088 99.5851 37.5043C99.1998 29.3154 98.6605 20.7014 96.6671 13.0364Z" fill="#00A651"/>
</svg>
