<svg width="195" height="43" viewBox="0 0 195 43" fill="none" xmlns="http://www.w3.org/2000/svg">
<path fill-rule="evenodd" clip-rule="evenodd" d="M29.4674 6.97569C28.5842 7.41595 27.6389 7.43117 27.2114 6.0332C26.9065 5.03635 27.184 3.92318 27.9429 3.52313C31.0688 1.26202 36.3049 -0.0870423 40.4987 3.57858C44.4464 7.03004 45.3404 14.7678 44.6179 21.7469C43.7787 29.8608 40.2642 38.0802 33.2685 37.8008C28.5345 37.6106 25.6588 33.4906 25.3191 28.7694C25.0764 25.4005 26.1228 21.7251 28.7018 18.952C31.2544 16.2093 33.6032 14.9222 36.8475 14.3493C37.657 14.208 38.159 15.0157 38.2667 16.0778C38.4067 17.4594 37.7075 18.2095 36.7928 18.3704C34.3198 18.8063 32.3662 19.8967 30.9338 21.9795C29.8741 23.5221 29.2536 25.5756 29.3008 28.228C29.3737 32.3535 31.1716 34.3646 33.2511 34.1047C37.5484 33.5699 39.2104 26.0452 39.7472 21.4077C40.4332 15.4864 40.0795 10.3858 38.1367 7.69207C36.4946 5.41465 33.715 4.85698 29.4665 6.97678L29.4674 6.97569Z" fill="white"/>
<path fill-rule="evenodd" clip-rule="evenodd" d="M58.4628 9.22149C59.6359 5.69719 56.182 4.20463 54.1977 5.46781C52.9509 6.26029 52.4314 7.85612 52.3154 9.5824C52.1944 11.3837 52.5209 13.7426 53.2996 15.3059C56.3443 21.4207 62.5953 25.5907 59.771 33.1806C57.9342 38.116 53.9127 39.4465 50.0371 39.2215C49.0346 39.1628 48.0404 38.9998 47.0976 38.7693C46.2774 38.5682 45.7364 37.5333 45.8905 36.4571C46.0437 35.3809 46.8325 34.6721 47.6527 34.8721C48.5334 35.0895 49.4555 35.3157 50.3469 35.17C52.7355 34.7786 54.9111 32.848 55.5217 29.4824C56.5556 23.7894 52.8564 20.5749 50.3635 17.1104C48.4621 14.4699 47.0744 11.6837 47.4779 8.20834C47.8847 4.70578 49.685 2.33378 52.2176 1.40759C55.3576 0.259637 59.6045 1.22713 61.312 4.86558C62.0129 6.33096 62.1786 8.4377 61.6342 10.2357C61.2772 11.4174 60.3625 11.949 59.5846 11.7022C58.7378 11.4337 58.0817 10.3673 58.4628 9.22149Z" fill="white"/>
<path fill-rule="evenodd" clip-rule="evenodd" d="M66.2696 3.22218C66.4643 2.04923 67.7592 1.54048 68.8528 1.71223C69.9456 1.88508 71.1055 2.14815 70.8437 4.01031C69.9506 10.685 69.7343 14.2636 72.2587 14.7441C76.083 15.4724 79.5254 9.05435 80.0059 4.67669C80.155 3.31459 81.0954 2.81344 81.9462 3.00477C82.7234 3.1787 83.4243 3.67114 83.3853 4.87671C83.2312 9.70876 82.6132 15.2931 81.9015 20.0164C83.0539 19.8164 84.2726 19.6359 85.5626 19.4816C86.4607 19.3794 87.1649 19.9316 87.2834 21.1676C87.3712 22.0884 87.0075 23.0831 86.1003 23.307C84.2784 23.8223 82.6057 24.3386 81.0722 24.855L80.904 25.6953C79.5983 32.0732 77.8817 38.8435 72.6216 40.9241C71.3913 41.4101 70.0881 41.5938 68.8959 41.4133C67.5836 41.2133 66.3897 40.5763 65.5123 39.4229C64.5629 38.1771 64.1064 36.3236 63.9871 34.5963C63.8255 32.2471 64.35 29.924 65.8288 27.7966C67.1561 25.8877 69.2836 24.1495 72.4277 22.7308C74.1493 21.9547 76.1949 21.2666 78.6066 20.6893C78.9977 18.4728 79.3216 16.2551 79.5834 14.194C77.0673 17.6585 74.4617 18.5989 72.0947 18.6891C67.103 18.8815 64.712 13.3081 66.2696 3.21892V3.22218ZM77.4799 26.1703C74.1021 27.5183 71.6191 28.8772 69.8892 30.2567C67.514 32.1504 66.794 33.9375 67.1818 35.7029C67.2795 36.0638 67.4228 36.3584 67.5993 36.5921C67.9672 37.0759 68.5214 37.339 69.1577 37.4151C69.9133 37.5064 70.7674 37.3357 71.6001 36.9618C75.1526 35.3605 76.436 30.5143 77.4799 26.1703Z" fill="white"/>
<path fill-rule="evenodd" clip-rule="evenodd" d="M20.8328 7.08119C17.7923 7.50515 12.5338 6.65614 10.7824 9.27274C8.14369 13.2166 7.82141 25.8452 10.5347 31.8415C12.4858 36.1539 16.045 35.7452 19.5371 35.218C20.5047 35.0712 21.7591 34.5755 22.2098 36.167C22.7723 38.1553 21.228 38.9032 20.1104 39.1478C15.1129 40.2435 9.25801 40.8316 6.09235 34.731C2.2258 27.2812 2.31527 12.5318 6.02276 6.87356C8.688 2.80681 15.9638 3.66234 20.0176 3.15468C22.8833 2.81986 22.6464 6.81486 20.8328 7.08011V7.08119Z" fill="white"/>
<path fill-rule="evenodd" clip-rule="evenodd" d="M17.3506 19.8064C18.175 19.5694 18.7657 20.3674 18.9463 21.449C19.1269 22.5306 18.8303 23.4873 18.006 23.7253C12.6067 25.2853 6.43945 24.6798 1.0228 23.621C0.189339 23.459 -0.0964904 22.46 0.0277829 21.3664C0.152056 20.2728 0.638378 19.4988 1.47184 19.6618C6.35577 20.3391 12.1461 20.9218 17.3506 19.8075V19.8064Z" fill="white"/>
<path fill-rule="evenodd" clip-rule="evenodd" d="M145.84 11.5319C145.163 15.6693 144.454 20.7992 144.604 25.5301C144.743 29.9458 145.628 34.0463 148.026 36.615C148.599 37.1477 148.5 38.1826 148.176 39.0316C147.817 39.9676 146.948 40.3459 146.234 39.8752C142.269 37.2412 140.336 32.981 139.697 28.1946C138.906 22.27 140.165 15.5725 141.946 10.347C142.577 8.48263 146.272 8.86853 145.84 11.5319Z" fill="white"/>
<path fill-rule="evenodd" clip-rule="evenodd" d="M152.092 6.72717C152.842 4.8574 156.241 6.09558 155.714 8.47519C154.179 14.315 154.124 21.0592 154.592 25.6064C154.865 28.261 155.604 32.6333 156.712 34.9574C157.319 34.0921 159.087 30.7494 161.138 26.6457C162.632 23.6551 164.193 20.2917 165.512 17.1468C164.687 16.4119 164.017 15.6521 163.5 14.8563C162 12.5539 161.443 9.2905 162.405 6.49563C162.716 5.59335 163.169 4.79109 163.743 4.14863C164.656 3.1246 165.873 2.50279 167.309 2.52345C168.023 2.53432 168.675 2.68868 169.255 2.97023C170.262 3.45942 171.038 4.30952 171.56 5.44877C172.668 7.87404 172.356 10.9624 171.641 13.4953C171.381 14.4193 171.062 15.3868 170.698 16.3815C171.549 16.8511 172.493 17.3218 173.53 17.7947C174.137 18.0686 174.515 18.8198 174.505 19.6177C174.507 19.8319 174.481 20.0504 174.426 20.2645C174.166 21.2548 173.344 21.781 172.588 21.4397C171.393 20.8939 170.304 20.346 169.32 19.7906C168.124 22.5224 166.699 25.3162 165.259 27.8773C164.165 29.8221 158.728 38.6089 156.894 38.9318C156.611 38.9818 156.335 38.9535 156.068 38.8513C153.865 38.0089 151.928 33.741 151.142 31.3451C150.049 28.0143 149.305 23.7432 149.498 19.1492C149.643 15.7097 150.665 10.2819 152.092 6.72717H152.092ZM166.879 13.7182C167.093 13.1507 167.293 12.6006 167.476 12.0712C167.846 11.0059 168.782 7.9947 168.318 6.83044C168.274 6.71956 168.195 6.62608 168.077 6.5565C167.883 6.44127 167.617 6.37605 167.269 6.3717C166.591 6.36191 166.029 6.64021 165.621 7.09895C165.372 7.37833 165.176 7.72619 165.041 8.11537C164.898 8.52954 164.82 8.99046 164.816 9.46878V9.52095C164.829 10.4297 165.107 11.419 165.701 12.3332C166.005 12.7996 166.398 13.2605 166.879 13.7192V13.7182Z" fill="white"/>
<path fill-rule="evenodd" clip-rule="evenodd" d="M169.382 19.6708C168.614 19.3871 168.168 18.3392 168.384 17.3325C168.601 16.3248 169.399 15.7378 170.166 16.0215C171.352 16.4607 172.536 16.8977 173.725 17.3239C176.187 7.68367 181.071 3.96478 185.568 3.85716C191.401 3.71802 196.254 9.58171 194.668 16.539C192.338 26.7618 183.063 24.4898 177.375 22.5472C176.086 28.3925 176.887 32.1037 179.134 33.3093C180.745 34.1735 183.1 33.7496 185.961 31.8994C188.284 30.3981 189.148 33.867 187.495 35.2149C184.641 37.5413 180.859 38.1261 177.812 36.6162C172.656 34.0605 171.937 27.3108 172.967 20.996L169.382 19.6708ZM178.12 18.8208C182.318 20.1622 188.339 21.6885 190.193 14.5964C191.524 9.50778 188.404 6.96511 185.008 7.91195C181.499 8.89032 179.367 14.2561 178.12 18.8208Z" fill="white"/>
<path fill-rule="evenodd" clip-rule="evenodd" d="M137.061 37.0935C137.61 37.9284 137.539 39.1905 136.902 39.9112C135.437 41.569 134.161 40.5211 133.06 39.0764C131.743 37.3468 130.373 35.4988 129.165 33.5007C128.244 31.9778 126.99 29.6612 126.25 27.2838C125.074 23.504 125.531 20.2743 128.488 18.4393C131.191 16.4174 132.241 13.4768 132.139 10.8167C132.064 8.85784 131.372 6.95545 130.169 5.7651C128.414 4.02904 123.951 4.05622 123.404 7.89142C122.831 11.8995 122.944 20.9211 123.432 27.8914C123.807 33.254 124.126 37.8153 123.552 39.9286C123.335 40.8831 122.602 41.4962 121.835 41.3234C121.005 41.1364 119.955 40.1167 119.98 39.0144C120.028 36.9011 119.826 35.4651 119.491 31.9875C118.749 24.3052 117.979 13.4942 119.655 7.20765C120.804 2.89631 124.176 0.780864 127.545 0.590626C129.781 0.465612 132.17 1.24287 134.003 2.92892C136.068 4.82804 137.432 7.8512 137.143 11.5146C136.845 15.2509 134.488 19.1785 129.912 21.9723C128.488 23.0377 128.502 23.5453 129.099 25.6455C130.521 29.0231 134.54 33.9693 137.061 37.0957V37.0935Z" fill="white"/>
<path fill-rule="evenodd" clip-rule="evenodd" d="M143.36 2.68095C143.887 0.682908 144.804 -0.291115 146.542 0.076317C148.322 0.452445 149.014 1.69606 148.387 3.86695C147.813 5.85521 146.809 6.59877 145.215 6.22917C143.574 5.84869 142.828 4.70074 143.36 2.67986V2.68095Z" fill="white"/>
<path fill-rule="evenodd" clip-rule="evenodd" d="M106.325 35.5041C111.153 34.5311 110.619 25.1518 110.068 20.5285C109.385 14.8094 107.918 11.2068 105.632 9.23489C103.171 7.11292 99.762 6.87811 95.3611 7.92496C94.5169 8.1239 93.6619 8.43589 92.8367 8.637C90.9983 9.08487 90.3363 5.4823 92.2675 4.65613C92.6594 4.48872 93.1002 4.3898 93.4987 4.27891C98.2078 2.91681 105.09 1.29163 109.339 4.86376C112.914 7.83365 115.061 13.8854 115.49 20.3502C116.065 29.0077 114.835 37.2314 107.379 38.9882C102.693 40.0915 99.1796 38.7816 98.2169 40.9242C96.0819 45.678 92.0223 41.421 95.1871 36.627C97.5351 33.0701 102.07 36.3661 106.324 35.503L106.325 35.5041Z" fill="white"/>
<path fill-rule="evenodd" clip-rule="evenodd" d="M96.6671 13.0363C96.3995 12.1645 96.9198 11.2263 97.9977 10.86C98.9943 10.5219 99.6994 11.022 100.027 12.0884C102.284 19.4196 102.898 29.4729 103.014 37.4977C103.031 38.6033 102.328 39.1381 101.486 39.1598C100.643 39.1805 99.6008 38.6087 99.5851 37.5042C99.1998 29.3153 98.6605 20.7013 96.6671 13.0363Z" fill="white"/>
</svg>
