<svg width="20" height="18" viewBox="0 0 20 18" fill="none" xmlns="http://www.w3.org/2000/svg">
<path d="M19.6912 0.986694C19.4469 0.687927 19.081 0.523438 18.6608 0.523438C18.4323 0.523438 18.1903 0.571503 17.9416 0.666565L1.01199 7.12912C0.113557 7.47198 -0.00744541 7.98651 0.000336565 8.26269C0.00811854 8.53888 0.158112 9.04577 1.07456 9.33737C1.08005 9.33905 1.08554 9.34072 1.09103 9.34225L4.60269 10.3472L6.5018 15.7778C6.76074 16.5182 7.34195 16.9781 8.01883 16.9781C8.44562 16.9781 8.86539 16.7992 9.23282 16.4611L11.4049 14.4611L14.5554 16.9979C14.5557 16.9982 14.5562 16.9983 14.5565 16.9987L14.5864 17.0228C14.5891 17.0249 14.592 17.0272 14.5948 17.0293C14.9449 17.3009 15.3272 17.4444 15.7006 17.4445H15.7007C16.4302 17.4445 17.0111 16.9045 17.1804 16.0689L19.9543 2.37204C20.0656 1.82227 19.9723 1.33032 19.6912 0.986694ZM5.77747 10.1563L12.5525 6.69516L8.33392 11.1777C8.2648 11.2511 8.21582 11.341 8.19171 11.4388L7.37826 14.7338L5.77747 10.1563ZM8.4389 15.599C8.41083 15.6248 8.3826 15.6478 8.35437 15.669L9.10907 12.6124L10.4819 13.7179L8.4389 15.599ZM18.8057 2.13934L16.0318 15.8364C16.0051 15.9675 15.9198 16.2725 15.7006 16.2725C15.5922 16.2725 15.4561 16.2134 15.3168 16.1062L11.7469 13.2317C11.7464 13.2313 11.7458 13.2308 11.7452 13.2305L9.621 11.52L15.7216 5.0376C15.9169 4.83008 15.9346 4.51224 15.7636 4.28427C15.5924 4.0563 15.2822 3.98459 15.0284 4.11429L4.99454 9.24032L1.43512 8.22195L18.3596 1.76138C18.5025 1.70676 18.6023 1.69531 18.6608 1.69531C18.6966 1.69531 18.7604 1.69958 18.7841 1.72873C18.8152 1.76672 18.8549 1.89627 18.8057 2.13934Z" fill="white" fill-opacity="0.9"/>
</svg>
